<?xml version="1.0" encoding="utf-8"?>
<!-- Generator: Adobe Illustrator 27.2.0, SVG Export Plug-In . SVG Version: 6.00 Build 0)  -->
<svg version="1.0" id="Слой_1" xmlns="http://www.w3.org/2000/svg" xmlns:xlink="http://www.w3.org/1999/xlink" x="0px" y="0px"
	 viewBox="0 0 20 20" style="enable-background:new 0 0 20 20;" xml:space="preserve">
<style type="text/css">
	.st0{fill:#0dfd01;}
</style>
<path class="st0" d="M1.7,3.1c0,0,0-0.1,0.1-0.1c0.1-0.4,0.5-0.6,0.9-0.5c1,0.2,1.9,0.5,2.9,0.7c0.2,0,0.3,0.1,0.5,0.1
	C6.3,3.5,6.5,3.7,6.5,4C6.7,5.1,6.8,6.2,7,7.4c0.1,1.1,0.3,2.1,0.4,3.2c0.1,0.5,0.1,1,0.2,1.5c0.1,0,0.1,0,0.2,0c2.5,0,4.9,0,7.4,0
	c0.1,0,0.2,0,0.2-0.2c0.1-0.4,0.2-0.8,0.3-1.2c-0.1,0-0.1,0-0.2,0c-2,0-4.1,0-6.1,0c-0.1,0-0.2,0-0.3,0c-0.3-0.1-0.5-0.4-0.5-0.7
	c0-0.3,0.3-0.5,0.6-0.5c0.1,0,0.1,0,0.2,0c2.2,0,4.3,0,6.5,0c0.1,0,0.1,0,0.2,0c0.1-0.5,0.3-1,0.4-1.4c-0.1,0-0.1,0-0.2,0
	C14.2,8,12,8,9.8,8C9.4,8,9.1,7.7,9.1,7.3c0-0.4,0.3-0.7,0.7-0.7c0.3,0,0.5,0,0.8,0c2.2,0,4.4,0,6.7,0c0.1,0,0.1,0,0.2,0
	c0.5,0,0.7,0.1,0.9,0.6c0,0.1,0,0.3,0,0.4c-0.6,1.8-1.2,3.6-1.8,5.5c-0.1,0.4-0.4,0.7-0.9,0.7c-2.8,0-5.6,0-8.4,0
	c-0.6,0-0.9-0.3-1-0.8C6,11.3,5.8,9.7,5.5,8.2C5.4,7.1,5.2,5.9,5.1,4.8c0-0.1-0.1-0.1-0.2-0.1C4.1,4.5,3.3,4.3,2.5,4.1
	C2.1,4,1.9,3.8,1.7,3.4C1.7,3.3,1.7,3.2,1.7,3.1z"/>
<path class="st0" d="M12.5,15.5c0-0.8,0.6-1.4,1.4-1.4c0.8,0,1.4,0.6,1.4,1.4c0,0.8-0.6,1.4-1.4,1.4C13.2,16.9,12.5,16.3,12.5,15.5z
	"/>
<path class="st0" d="M9.3,15.5c0,0.8-0.6,1.4-1.4,1.4c-0.8,0-1.4-0.6-1.4-1.4c0-0.8,0.6-1.4,1.4-1.4C8.7,14.1,9.3,14.8,9.3,15.5z"/>
</svg>
