<?xml version="1.0" encoding="utf-8"?>
<!-- Generator: Adobe Illustrator 27.2.0, SVG Export Plug-In . SVG Version: 6.00 Build 0)  -->
<svg version="1.0" id="Слой_1" xmlns="http://www.w3.org/2000/svg" xmlns:xlink="http://www.w3.org/1999/xlink" x="0px" y="0px"
	 viewBox="0 0 20 20" style="enable-background:new 0 0 20 20;" xml:space="preserve">
<style type="text/css">
	{fill:#0dfd01;}
</style>
<path class="st0" d="M4,17.3c0-0.4,0.1-0.9,0.1-1.3c0-0.4,0.1-0.7,0.1-1.1c0-0.4,0.1-0.9,0.1-1.3c0-0.3,0.1-0.7,0.1-1
	c0-0.5,0.1-0.9,0.1-1.4c0-0.5,0.1-0.9,0.1-1.4c0-0.5,0.1-0.9,0.1-1.4C4.9,7.9,5,7.5,5,7c0-0.2,0-0.4,0.1-0.7c0.5,0,1,0,1.6,0
	c0-0.1,0-0.1,0-0.2c0-0.5,0-1,0-1.4c0.1-1.1,0.7-2,1.7-2.5c1.7-1,3.9-0.2,4.7,1.6c0.2,0.4,0.3,0.8,0.3,1.3c0,0.4,0,0.8,0,1.2
	c0.5,0,1.1,0,1.6,0c0.4,3.7,0.7,7.3,1.1,10.9C12,17.3,8,17.3,4,17.3z M12.3,6.4c0-0.4,0-0.8,0-1.2c0-0.2,0-0.4-0.1-0.5
	C12,3.5,11,2.8,9.8,2.9c-1,0.1-1.9,0.9-2.1,1.9c-0.1,0.5,0,1.1-0.1,1.6c0,0,0,0,0,0C9.2,6.4,10.8,6.4,12.3,6.4z M8.4,14.6
	c1.3-1.7,2.7-3.3,4-5c-0.3-0.2-0.5-0.4-0.8-0.6c-1.3,1.7-2.7,3.3-4,5C7.9,14.2,8.1,14.4,8.4,14.6z M9.4,10.4c0-0.6-0.4-1-1-1
	c-0.6,0-1,0.5-1,1c0,0.5,0.4,1,1,1C8.9,11.4,9.4,11,9.4,10.4z M10.6,13.6c0,0.6,0.4,1,1,1c0.5,0,1-0.5,1-1.1c0-0.5-0.5-0.9-1-0.9
	C11.1,12.6,10.6,13,10.6,13.6z"/>
<rect x="6.8" y="8.4" class="st0" width="6.9" height="7.6"/>
</svg>
