<?xml version="1.0" encoding="utf-8"?>
<!-- Generator: Adobe Illustrator 25.2.3, SVG Export Plug-In . SVG Version: 6.00 Build 0)  -->
<svg version="1.1" id="Слой_1" xmlns="http://www.w3.org/2000/svg" xmlns:xlink="http://www.w3.org/1999/xlink" x="0px" y="0px"
	 viewBox="0 0 154.5 114.2" style="enable-background:new 0 0 154.5 114.2;" xml:space="preserve">
<style type="text/css">
	.st0{fill:#000000;stroke:#ffffff;stroke-size:2px;}
	.st1{fill:#00FF00;stroke:#1D1D1B;stroke-miterlimit:10;}
</style>
<path class="st0" d="M4,0.3h19.8v12.5H17v0.7h6.8V26H4l-3-2.9V3.3L4,0.3z"/>
<path class="st0" d="M48.4,12.9h-2.7v13H27.8v-13h-2.7V0.2h23.3L48.4,12.9z"/>
<path class="st0" d="M61.9,0.2v8.2h0.7V0.2h12.6v22.9L72.1,26H49.3v-6.7l3-3l-3-3V0.2H61.9z"/>
<path class="st0" d="M78.5,13.2l6.1-13h15.7v13h2.1V26H76.4V13.2H78.5z"/>
<path class="st0" d="M129.9,0v26c-8.7,0-17.5,0.1-26.3,0.1V0h13.1v6.1L129.9,0z"/>
<path class="st0" d="M154.1,0.2V26h-23.4l3.9-9.8l-3-3V3.2l3-3L154.1,0.2z"/>
<path class="st0" d="M117.2,64c0.4,0,0.7,0.3,0.7,0.7c0,0,0,0,0,0v23.4c0,0.4-0.3,0.7-0.7,0.7h-1c-0.4,0-0.7-0.3-0.7-0.7V64.7
	c0-0.4,0.3-0.7,0.7-0.7L117.2,64 M117.2,63h-1c-1,0-1.7,0.8-1.7,1.7v23.4c0,1,0.8,1.7,1.7,1.7h1c1,0,1.7-0.8,1.7-1.7V64.7
	C118.9,63.8,118.2,63,117.2,63C117.2,63,117.2,63,117.2,63z"/>
<path class="st0" d="M38.8,51.5c0.4,0,0.7,0.3,0.7,0.6v23.6c0,0.4-0.3,0.6-0.7,0.6h-0.6c-0.4,0-0.7-0.3-0.7-0.6V52.1
	c0-0.4,0.3-0.6,0.7-0.6L38.8,51.5 M38.8,50.5h-0.6c-0.9,0-1.7,0.7-1.7,1.6v23.6c0,0.9,0.7,1.6,1.7,1.6h0.6c0.9,0,1.7-0.7,1.7-1.6
	V52.1C40.5,51.2,39.7,50.5,38.8,50.5z"/>
<path class="st1" d="M12.5,34.7L3.3,44v30.3l9.3,9.2L0.7,113.5l36.2-0.1V98.6c0-0.5,0.4-0.8,0.8-0.8h1.5c0.5,0,0.8,0.4,0.8,0.8v14.8
	l32.1-0.1V34.7H12.5z M40.1,75.8c0,0.6-0.5,1.2-1.1,1.2h-0.6c-0.6,0-1.1-0.5-1.1-1.2V52.2c0-0.6,0.5-1.1,1.1-1.1H39
	c0.6,0,1.1,0.5,1.1,1.1V75.8z"/>
<path class="st1" d="M147.7,74.7V35H99.7L81.2,74.7h-6.4v38.9H154V74.7H147.7z M118.4,88.1c0,0.7-0.6,1.2-1.2,1.2h-0.9
	c-0.7,0-1.2-0.6-1.2-1.2V64.7c0-0.7,0.6-1.2,1.2-1.2h0.9c0.7,0,1.2,0.6,1.2,1.2V88.1z"/>
</svg>
